<svg id="Layer_1" data-name="Layer 1" xmlns="http://www.w3.org/2000/svg" viewBox="0 0 38.73 38.99"><defs><style>.cls-1{fill:#d61c1f;stroke:#d61c1f;stroke-linecap:round;stroke-miterlimit:10;}</style></defs><title>điện thoại đỏ</title><path class="cls-1" d="M23.35,36.65l-3.62-4.5s-.94-1.06-2.56,0a71.16,71.16,0,0,1-7.75,3.38s-1.19.06-.62,2.81,1.69,7.31,1.69,7.31.46.91,2.4.85,11.91.34,23.16-9.72S46.35,12.21,46.35,12.21s.19-1.44-1.81-1.87S38,8.71,38,8.71s-1.87-.81-2.56.81S32,17.21,32,17.21a2.22,2.22,0,0,0,.5,2.94l4.06,3.44S34.53,31.71,23.35,36.65Z" transform="translate(-8.13 -8.01)"/></svg>