<svg id="Layer_1" data-name="Layer 1" xmlns="http://www.w3.org/2000/svg" viewBox="0 0 36.87 26.51"><defs><style>.cls-1{fill:#d61c1f;}</style></defs><title>mail đỏ</title><path class="cls-1" d="M27.53,31.07a6.21,6.21,0,0,0,2.82-1.23L34,27.28l10.59-7.72,1.37-1V16.79a2.51,2.51,0,0,0-2.47-2.54H11.53a2.51,2.51,0,0,0-2.47,2.54v1.73L24,29.39S26.33,31.07,27.53,31.07Z" transform="translate(-9.07 -14.24)"/><path class="cls-1" d="M35,29.28a56.84,56.84,0,0,1-4.94,3.34,5,5,0,0,1-5.15,0,5.34,5.34,0,0,1-.75-.41l-2.64-1.81L19.1,28.64l-10-7.31V38.21a2.51,2.51,0,0,0,2.47,2.54H43.47a2.51,2.51,0,0,0,2.47-2.54V21.38C45.65,21.59,38.69,26.65,35,29.28Z" transform="translate(-9.07 -14.24)"/></svg>